<mxfile host="Electron" modified="2024-03-05T21:06:08.138Z" agent="Mozilla/5.0 (Macintosh; Intel Mac OS X 10_15_7) AppleWebKit/537.36 (KHTML, like Gecko) draw.io/23.1.5 Chrome/120.0.6099.109 Electron/28.1.0 Safari/537.36" etag="uI01MSpmGaNCuA-YU5_W" version="23.1.5" type="device">
  <diagram id="De0BZFYlNpFFtrPDqust" name="Channels">
    <mxGraphModel dx="1156" dy="818" grid="1" gridSize="10" guides="1" tooltips="1" connect="1" arrows="1" fold="1" page="1" pageScale="1" pageWidth="1169" pageHeight="827" math="0" shadow="0">
      <root>
        <mxCell id="0" />
        <mxCell id="1" style="" parent="0" />
        <mxCell id="BiYysOSFo5dY4EOSxESx-11" style="edgeStyle=orthogonalEdgeStyle;rounded=0;orthogonalLoop=1;jettySize=auto;html=1;entryX=0.462;entryY=0;entryDx=0;entryDy=0;entryPerimeter=0;" parent="1" source="OAryraXYp-LvgY6b9OL1-19" target="OAryraXYp-LvgY6b9OL1-8" edge="1">
          <mxGeometry relative="1" as="geometry" />
        </mxCell>
        <mxCell id="WocyqKa9Z0Sg-phrxOq2-13" value="book" style="edgeLabel;html=1;align=center;verticalAlign=middle;resizable=0;points=[];" vertex="1" connectable="0" parent="BiYysOSFo5dY4EOSxESx-11">
          <mxGeometry x="0.0328" y="1" relative="1" as="geometry">
            <mxPoint as="offset" />
          </mxGeometry>
        </mxCell>
        <mxCell id="BiYysOSFo5dY4EOSxESx-12" style="edgeStyle=orthogonalEdgeStyle;rounded=0;orthogonalLoop=1;jettySize=auto;html=1;exitX=0.5;exitY=0.5;exitDx=0;exitDy=0;exitPerimeter=0;entryX=0.181;entryY=0;entryDx=0;entryDy=0;entryPerimeter=0;" parent="1" source="OAryraXYp-LvgY6b9OL1-19" target="OAryraXYp-LvgY6b9OL1-10" edge="1">
          <mxGeometry relative="1" as="geometry">
            <mxPoint x="470" y="240" as="targetPoint" />
          </mxGeometry>
        </mxCell>
        <mxCell id="WocyqKa9Z0Sg-phrxOq2-15" value="register" style="edgeLabel;html=1;align=center;verticalAlign=middle;resizable=0;points=[];" vertex="1" connectable="0" parent="BiYysOSFo5dY4EOSxESx-12">
          <mxGeometry x="-0.4858" relative="1" as="geometry">
            <mxPoint y="7" as="offset" />
          </mxGeometry>
        </mxCell>
        <mxCell id="OAryraXYp-LvgY6b9OL1-19" value="Conference Attendee" style="shape=umlActor;verticalLabelPosition=bottom;verticalAlign=top;html=1;outlineConnect=0;" parent="1" vertex="1">
          <mxGeometry x="462.86" width="30" height="60" as="geometry" />
        </mxCell>
        <mxCell id="XWD1k7IswQzcJ5GuDLMN-7" value="Conference&lt;br&gt;Changed" style="shape=step;perimeter=stepPerimeter;whiteSpace=wrap;html=1;fixedSize=1;fillColor=#e3c800;fontColor=#000000;strokeColor=#B09500;direction=south;rotation=0;flipV=0;flipH=1;" parent="1" vertex="1">
          <mxGeometry x="402.86" y="570" width="60" height="120" as="geometry" />
        </mxCell>
        <mxCell id="QQvggG3tnuJyE4ZpoB5A-2" style="edgeStyle=orthogonalEdgeStyle;rounded=0;orthogonalLoop=1;jettySize=auto;html=1;fillColor=#e3c800;strokeColor=#000000;entryX=0;entryY=0.5;entryDx=0;entryDy=0;exitX=0;exitY=0.5;exitDx=0;exitDy=0;" parent="1" source="XWD1k7IswQzcJ5GuDLMN-8" target="OAryraXYp-LvgY6b9OL1-1" edge="1">
          <mxGeometry relative="1" as="geometry">
            <mxPoint x="218" y="346" as="targetPoint" />
            <Array as="points">
              <mxPoint x="523" y="750" />
              <mxPoint x="130" y="750" />
              <mxPoint x="130" y="380" />
            </Array>
          </mxGeometry>
        </mxCell>
        <mxCell id="HPvP6GIJXwQTMfWnTBbl-5" style="edgeStyle=orthogonalEdgeStyle;rounded=0;orthogonalLoop=1;jettySize=auto;html=1;entryX=0.5;entryY=1;entryDx=0;entryDy=0;" edge="1" parent="1" source="XWD1k7IswQzcJ5GuDLMN-8" target="BiYysOSFo5dY4EOSxESx-7">
          <mxGeometry relative="1" as="geometry">
            <Array as="points">
              <mxPoint x="523" y="750" />
              <mxPoint x="1035" y="750" />
            </Array>
          </mxGeometry>
        </mxCell>
        <mxCell id="HPvP6GIJXwQTMfWnTBbl-6" style="edgeStyle=orthogonalEdgeStyle;rounded=0;orthogonalLoop=1;jettySize=auto;html=1;entryX=1;entryY=0.5;entryDx=0;entryDy=0;" edge="1" parent="1" source="XWD1k7IswQzcJ5GuDLMN-8" target="OAryraXYp-LvgY6b9OL1-8">
          <mxGeometry relative="1" as="geometry">
            <Array as="points">
              <mxPoint x="523" y="750" />
              <mxPoint x="1280" y="750" />
              <mxPoint x="1280" y="155" />
            </Array>
          </mxGeometry>
        </mxCell>
        <mxCell id="XWD1k7IswQzcJ5GuDLMN-8" value="Announce&lt;br&gt;Conference" style="shape=step;perimeter=stepPerimeter;whiteSpace=wrap;html=1;fixedSize=1;rotation=0;flipV=1;flipH=1;fillColor=#e3c800;fontColor=#000000;strokeColor=#B09500;direction=north;" parent="1" vertex="1">
          <mxGeometry x="492.86" y="570" width="60" height="120" as="geometry" />
        </mxCell>
        <mxCell id="a32YlTci2-MrlOb8tS9f-7" style="edgeStyle=orthogonalEdgeStyle;rounded=0;orthogonalLoop=1;jettySize=auto;html=1;entryX=1;entryY=0.5;entryDx=0;entryDy=0;" edge="1" parent="1" source="XWD1k7IswQzcJ5GuDLMN-9" target="OAryraXYp-LvgY6b9OL1-10">
          <mxGeometry relative="1" as="geometry" />
        </mxCell>
        <mxCell id="XWD1k7IswQzcJ5GuDLMN-9" value="Discounts &lt;br&gt;Offered" style="shape=step;perimeter=stepPerimeter;whiteSpace=wrap;html=1;fixedSize=1;rotation=0;flipV=0;flipH=1;direction=east;fillColor=#fa6800;fontColor=#000000;strokeColor=#C73500;" parent="1" vertex="1">
          <mxGeometry x="680" y="433.98" width="120" height="60" as="geometry" />
        </mxCell>
        <mxCell id="WocyqKa9Z0Sg-phrxOq2-7" value="" style="group" vertex="1" connectable="0" parent="1">
          <mxGeometry x="860" y="270" width="350" height="220" as="geometry" />
        </mxCell>
        <mxCell id="BiYysOSFo5dY4EOSxESx-7" value="" style="rounded=1;whiteSpace=wrap;html=1;fillColor=default;dashed=1;fontColor=#000000;strokeColor=#BD7000;strokeWidth=4;" parent="WocyqKa9Z0Sg-phrxOq2-7" vertex="1">
          <mxGeometry width="350" height="220" as="geometry" />
        </mxCell>
        <mxCell id="OAryraXYp-LvgY6b9OL1-16" value="Hotel" style="rounded=1;whiteSpace=wrap;html=1;" parent="WocyqKa9Z0Sg-phrxOq2-7" vertex="1">
          <mxGeometry x="120" y="20" width="120" height="70" as="geometry" />
        </mxCell>
        <mxCell id="OAryraXYp-LvgY6b9OL1-18" value="Airline" style="rounded=1;whiteSpace=wrap;html=1;" parent="WocyqKa9Z0Sg-phrxOq2-7" vertex="1">
          <mxGeometry x="40" y="120" width="120" height="70" as="geometry" />
        </mxCell>
        <mxCell id="WocyqKa9Z0Sg-phrxOq2-1" value="Hotel" style="rounded=1;whiteSpace=wrap;html=1;" vertex="1" parent="WocyqKa9Z0Sg-phrxOq2-7">
          <mxGeometry x="110" y="30" width="120" height="70" as="geometry" />
        </mxCell>
        <mxCell id="WocyqKa9Z0Sg-phrxOq2-2" value="Airline" style="rounded=1;whiteSpace=wrap;html=1;" vertex="1" parent="WocyqKa9Z0Sg-phrxOq2-7">
          <mxGeometry x="30" y="130" width="120" height="70" as="geometry" />
        </mxCell>
        <mxCell id="WocyqKa9Z0Sg-phrxOq2-3" value="Airline" style="rounded=1;whiteSpace=wrap;html=1;" vertex="1" parent="WocyqKa9Z0Sg-phrxOq2-7">
          <mxGeometry x="200" y="120" width="120" height="70" as="geometry" />
        </mxCell>
        <mxCell id="WocyqKa9Z0Sg-phrxOq2-4" value="Other Services" style="rounded=1;whiteSpace=wrap;html=1;" vertex="1" parent="WocyqKa9Z0Sg-phrxOq2-7">
          <mxGeometry x="190" y="130" width="120" height="70" as="geometry" />
        </mxCell>
        <mxCell id="WocyqKa9Z0Sg-phrxOq2-9" value="" style="group" vertex="1" connectable="0" parent="1">
          <mxGeometry x="560" y="120" width="465.88" height="80" as="geometry" />
        </mxCell>
        <mxCell id="OAryraXYp-LvgY6b9OL1-8" value="Booking Platform" style="rounded=1;whiteSpace=wrap;html=1;" parent="WocyqKa9Z0Sg-phrxOq2-9" vertex="1">
          <mxGeometry x="11.765443598476068" width="454.1145564015238" height="70" as="geometry" />
        </mxCell>
        <mxCell id="WocyqKa9Z0Sg-phrxOq2-6" value="Booking Platform" style="rounded=1;whiteSpace=wrap;html=1;" vertex="1" parent="WocyqKa9Z0Sg-phrxOq2-9">
          <mxGeometry y="10" width="454.1145564015238" height="70" as="geometry" />
        </mxCell>
        <mxCell id="WocyqKa9Z0Sg-phrxOq2-12" style="edgeStyle=orthogonalEdgeStyle;rounded=0;orthogonalLoop=1;jettySize=auto;html=1;" edge="1" parent="1" source="OAryraXYp-LvgY6b9OL1-19">
          <mxGeometry relative="1" as="geometry">
            <mxPoint x="1050" y="270" as="targetPoint" />
            <Array as="points">
              <mxPoint x="540" y="30" />
              <mxPoint x="540" y="230" />
              <mxPoint x="1050" y="230" />
            </Array>
          </mxGeometry>
        </mxCell>
        <mxCell id="WocyqKa9Z0Sg-phrxOq2-14" value="book" style="edgeLabel;html=1;align=center;verticalAlign=middle;resizable=0;points=[];" vertex="1" connectable="0" parent="WocyqKa9Z0Sg-phrxOq2-12">
          <mxGeometry x="0.1209" y="-2" relative="1" as="geometry">
            <mxPoint x="-203" y="-92" as="offset" />
          </mxGeometry>
        </mxCell>
        <mxCell id="HPvP6GIJXwQTMfWnTBbl-8" style="edgeStyle=orthogonalEdgeStyle;rounded=0;orthogonalLoop=1;jettySize=auto;html=1;exitX=0;exitY=0.5;exitDx=0;exitDy=0;entryX=1;entryY=1;entryDx=0;entryDy=0;" edge="1" parent="1" source="WocyqKa9Z0Sg-phrxOq2-16" target="OAryraXYp-LvgY6b9OL1-8">
          <mxGeometry relative="1" as="geometry">
            <mxPoint x="1260" y="200" as="targetPoint" />
            <mxPoint x="840" y="680" as="sourcePoint" />
            <Array as="points">
              <mxPoint x="615" y="710" />
              <mxPoint x="1240" y="710" />
              <mxPoint x="1240" y="190" />
            </Array>
          </mxGeometry>
        </mxCell>
        <mxCell id="WocyqKa9Z0Sg-phrxOq2-16" value="Discount&lt;br&gt;&amp;nbsp;Availability" style="shape=step;perimeter=stepPerimeter;whiteSpace=wrap;html=1;fixedSize=1;rotation=0;flipV=1;flipH=1;fillColor=#e3c800;fontColor=#000000;strokeColor=#B09500;direction=north;" vertex="1" parent="1">
          <mxGeometry x="585" y="570" width="60" height="120" as="geometry" />
        </mxCell>
        <mxCell id="a32YlTci2-MrlOb8tS9f-5" style="edgeStyle=orthogonalEdgeStyle;rounded=0;orthogonalLoop=1;jettySize=auto;html=1;" edge="1" parent="1" source="WocyqKa9Z0Sg-phrxOq2-17" target="OAryraXYp-LvgY6b9OL1-10">
          <mxGeometry relative="1" as="geometry" />
        </mxCell>
        <mxCell id="WocyqKa9Z0Sg-phrxOq2-17" value="Discount&lt;br&gt;granted" style="shape=step;perimeter=stepPerimeter;whiteSpace=wrap;html=1;fixedSize=1;rotation=0;flipV=0;flipH=0;direction=west;fillColor=#fa6800;fontColor=#000000;strokeColor=#C73500;" vertex="1" parent="1">
          <mxGeometry x="680" y="259.98" width="120" height="60" as="geometry" />
        </mxCell>
        <mxCell id="HPvP6GIJXwQTMfWnTBbl-1" style="edgeStyle=orthogonalEdgeStyle;rounded=0;orthogonalLoop=1;jettySize=auto;html=1;" edge="1" parent="1" source="WocyqKa9Z0Sg-phrxOq2-5" target="XWD1k7IswQzcJ5GuDLMN-8">
          <mxGeometry relative="1" as="geometry" />
        </mxCell>
        <mxCell id="HPvP6GIJXwQTMfWnTBbl-2" style="edgeStyle=orthogonalEdgeStyle;rounded=0;orthogonalLoop=1;jettySize=auto;html=1;exitX=0.25;exitY=1;exitDx=0;exitDy=0;" edge="1" parent="1" source="WocyqKa9Z0Sg-phrxOq2-5" target="WocyqKa9Z0Sg-phrxOq2-16">
          <mxGeometry relative="1" as="geometry" />
        </mxCell>
        <mxCell id="HPvP6GIJXwQTMfWnTBbl-4" style="edgeStyle=orthogonalEdgeStyle;rounded=0;orthogonalLoop=1;jettySize=auto;html=1;entryX=0;entryY=0.5;entryDx=0;entryDy=0;" edge="1" parent="1" source="WocyqKa9Z0Sg-phrxOq2-5" target="XWD1k7IswQzcJ5GuDLMN-7">
          <mxGeometry relative="1" as="geometry">
            <Array as="points">
              <mxPoint x="570" y="530" />
              <mxPoint x="433" y="530" />
            </Array>
          </mxGeometry>
        </mxCell>
        <mxCell id="OAryraXYp-LvgY6b9OL1-10" value="" style="rounded=1;whiteSpace=wrap;html=1;" parent="1" vertex="1">
          <mxGeometry x="444.2857142857143" y="250" width="185.71428571428572" height="226.03106125970663" as="geometry" />
        </mxCell>
        <mxCell id="WocyqKa9Z0Sg-phrxOq2-5" value="Conference Management&lt;br&gt;&amp;nbsp;Provider" style="rounded=1;whiteSpace=wrap;html=1;" vertex="1" parent="1">
          <mxGeometry x="430" y="263.9689387402933" width="185.71428571428572" height="226.03106125970663" as="geometry" />
        </mxCell>
        <mxCell id="HPvP6GIJXwQTMfWnTBbl-9" value="" style="group" vertex="1" connectable="0" parent="1">
          <mxGeometry x="180" y="310" width="130" height="130" as="geometry" />
        </mxCell>
        <mxCell id="XWD1k7IswQzcJ5GuDLMN-24" value="" style="rounded=1;whiteSpace=wrap;html=1;" parent="HPvP6GIJXwQTMfWnTBbl-9" vertex="1">
          <mxGeometry x="10" width="120" height="116" as="geometry" />
        </mxCell>
        <mxCell id="XWD1k7IswQzcJ5GuDLMN-25" style="edgeStyle=orthogonalEdgeStyle;rounded=0;orthogonalLoop=1;jettySize=auto;html=1;exitX=0.5;exitY=1;exitDx=0;exitDy=0;" parent="HPvP6GIJXwQTMfWnTBbl-9" source="OAryraXYp-LvgY6b9OL1-1" target="OAryraXYp-LvgY6b9OL1-1" edge="1">
          <mxGeometry relative="1" as="geometry" />
        </mxCell>
        <mxCell id="OAryraXYp-LvgY6b9OL1-1" value="Conference Organizer" style="rounded=1;whiteSpace=wrap;html=1;" parent="HPvP6GIJXwQTMfWnTBbl-9" vertex="1">
          <mxGeometry y="10" width="120" height="120" as="geometry" />
        </mxCell>
        <mxCell id="a32YlTci2-MrlOb8tS9f-1" style="edgeStyle=orthogonalEdgeStyle;rounded=0;orthogonalLoop=1;jettySize=auto;html=1;entryX=0;entryY=0.5;entryDx=0;entryDy=0;" edge="1" parent="1" target="WocyqKa9Z0Sg-phrxOq2-17">
          <mxGeometry relative="1" as="geometry">
            <mxPoint x="860" y="370" as="sourcePoint" />
            <Array as="points">
              <mxPoint x="860" y="371" />
              <mxPoint x="830" y="371" />
              <mxPoint x="830" y="290" />
            </Array>
          </mxGeometry>
        </mxCell>
        <mxCell id="a32YlTci2-MrlOb8tS9f-2" style="edgeStyle=orthogonalEdgeStyle;rounded=0;orthogonalLoop=1;jettySize=auto;html=1;entryX=0.391;entryY=1.005;entryDx=0;entryDy=0;entryPerimeter=0;" edge="1" parent="1" source="XWD1k7IswQzcJ5GuDLMN-7" target="BiYysOSFo5dY4EOSxESx-7">
          <mxGeometry relative="1" as="geometry">
            <Array as="points">
              <mxPoint x="433" y="730" />
              <mxPoint x="997" y="730" />
            </Array>
          </mxGeometry>
        </mxCell>
        <mxCell id="a32YlTci2-MrlOb8tS9f-3" style="edgeStyle=orthogonalEdgeStyle;rounded=0;orthogonalLoop=1;jettySize=auto;html=1;entryX=1;entryY=0.5;entryDx=0;entryDy=0;exitX=0.001;exitY=0.445;exitDx=0;exitDy=0;exitPerimeter=0;" edge="1" parent="1" source="BiYysOSFo5dY4EOSxESx-7" target="XWD1k7IswQzcJ5GuDLMN-9">
          <mxGeometry relative="1" as="geometry" />
        </mxCell>
      </root>
    </mxGraphModel>
  </diagram>
</mxfile>
